# AST/ASF file generated using VICON BodyLanguage
# -----------------------------------------------
:version 1.10
:name VICON
:units
  mass 1.0
  length 0.45
  angle deg
:documentation
   .ast/.asf automatically generated from VICON data using
   VICON BodyBuilder and BodyLanguage model FoxedUp or BRILLIANT.MOD
:root
   order TX TY TZ RX RY RZ
   axis XYZ
   position 0 0 0  
   orientation 0 0 0 
:bonedata
  begin
     id 1 
     name lhipjoint
     direction 0.690799 -0.707083 0.151096 
     length 2.54797 
     axis 0 0 0  XYZ
  end
  begin
     id 2 
     name lfemur
     direction 0.34202 -0.939693 0  
     length 7.21646  
     axis 0 0 20  XYZ
    dof rx ry rz
    limits (-160.0 20.0)
           (-70.0 70.0)
           (-60.0 70.0)
  end
  begin
     id 3 
     name ltibia
     direction 0.34202 -0.939693 0   
     length 8.16759   
     axis 0 0 20   XYZ
    dof rx
    limits (-10.0 170.0)
  end
  begin
     id 4 
     name lfoot
     direction 0.0487203 -0.133858 0.989802   
     length 1.93375   
     axis -90 7.62852e-016 20   XYZ
    dof rx rz
    limits (-45.0 90.0)
           (-70.0 20.0)
  end
  begin
     id 5 
     name ltoes
     direction 1.53453e-011 -4.21783e-011 1   
     length 0.979747   
     axis -90 7.62852e-016 20   XYZ
    dof rx
    limits (-90.0 20.0)
  end
  begin
     id 6 
     name rhipjoint
     direction -0.694693 -0.703425 0.150315   
     length 2.56122  
     axis 0 0 0  XYZ 
  end
  begin
     id 7 
     name rfemur
     direction -0.34202 -0.939693 0   
     length 7.36786   
     axis 0 0 -20   XYZ
    dof rx ry rz
    limits (-160.0 20.0)
           (-70.0 70.0)
           (-70.0 60.0)
  end
  begin
     id 8 
     name rtibia
     direction -0.34202 -0.939693 0   
     length 8.07288   
     axis 0 0 -20   XYZ
    dof rx
    limits (-10.0 170.0)
 end
 begin
     id 9 
     name rfoot
     direction -0.0428397 -0.117701 0.992125   
     length 1.88295  
     axis -90 -7.62852e-016 -20   XYZ
    dof rx rz
    limits (-45.0 90.0)
           (-20.0 70.0)
  end
  begin
     id 10 
     name rtoes
     direction -1.53456e-011 -4.2187e-011 1   
     length 0.955578   
     axis -90 -7.62852e-016 -20   XYZ
    dof rx
    limits (-90.0 20.0)
  end
  begin
     id 11 
     name lowerback
     direction 0.0288145 0.999398 -0.0193241   
     length 1.92149   
     axis 0 0 0   XYZ
    dof rx ry rz
    limits (-20.0 45.0)
           (-30.0 30.0)
           (-30.0 30.0)
  end
  begin
     id 12 
     name upperback
     direction 0.0233784 0.998099 0.0570278   
     length 1.90435   
     axis 0 0 0   XYZ
    dof rx ry rz
    limits (-20.0 45.0)
           (-30.0 30.0)
           (-30.0 30.0)
  end
  begin
     id 13 
     name thorax
     direction 0.0096694 0.997833 0.0650817   
     length 1.9111   
     axis 0 0 0   XYZ
    dof rx ry rz
    limits (-20.0 45.0)
           (-30.0 30.0)
           (-30.0 30.0)
  end
  begin
     id 14 
     name lowerneck
     direction 0.00516803 0.999916 0.0118722   
     length 1.74664   
     axis 0 0 0   XYZ
    dof rx ry rz
    limits (-20.0 45.0)
           (-30.0 30.0)
           (-30.0 30.0)
  end
  begin
     id 15 
     name upperneck
     direction -0.0510851 0.996117 -0.071696   
     length 1.68498   
     axis 0 0 0   XYZ
    dof rx ry rz
    limits (-20.0 45.0)
           (-30.0 30.0)
           (-30.0 30.0)
  end
  begin
     id 16
     name head
     direction -0.019188 0.999436 -0.0275702  
     length 1.83483  
     axis 0 0 0   XYZ
    dof rx ry rz
    limits (-20.0 45.0)
           (-30.0 30.0)
           (-30.0 30.0)
  end
  begin
     id 17 
     name lclavicle
     direction 0.967006 0.248456 -0.0562957  
     length 3.39395  
     axis 0 0 0   XYZ
    dof ry rz
    limits (-20.0 10.0)
           (0.0 20.0)
  end
  begin
     id 18 
     name lhumerus
     direction 1 -4.48962e-011 -5.62711e-019   
     length 5.24318   
     axis 180 -30 -90   XYZ
    dof rx ry rz
    limits (-60.0 90.0)
           (-90.0 90.0)
           (-90.0 90.0)
  end
  begin
     id 19
     name lradius
     direction 1 -4.48966e-011 7.90625e-027   
     length 2.98999   
     axis 180 -30 -90   XYZ
    dof rx
    limits (-10.0 170.0)
  end
  begin
     id 20
     name lwrist
     direction 1 -4.48959e-011 1.61068e-026   
     length 1.49499   
     axis -9.31229e-015 90 90   XYZ
    dof ry
    limits (-180.0 0.0)
 end
  begin
     id 21 
     name lhand
     direction 1 -4.49017e-011 3.22136e-026   
     length 0.726745   
     axis -2.0555e-014 90 90   XYZ
    dof rx rz
    limits (-90.0 90.0)
           (-45.0 45.0)
  end
  begin
     id 22 
     name lfingers
     direction 1 -4.4898e-011 6.44272e-026   
     length 0.58592   
     axis -4.11101e-014 90 90   XYZ
    dof rx
    limits (0.0 90.0)
  end
  begin
     id 23
     name lthumb
     direction 0.707107 -6.34922e-011 0.707107   
     length 0.841268   
     axis -90 45 2.85299e-015   XYZ
    dof rx rz
    limits (-45.0 45.0)
           (-45.0 45.0)
  end
  begin
     id 24 
     name rclavicle
     direction -0.972232 0.230238 0.0419005   
     length 3.40416  
     axis 0 0 0   XYZ 
    dof ry rz
    limits (-10.0 20.0)
           (-20.0 0.0)
  end
  begin
     id 25 
     name rhumerus
     direction -1 -4.48976e-011 2.48487e-027  
     length 5.37045   
     axis 180 30 90   XYZ
    dof rx ry rz
    limits (-90.0 60.0)
           (-90.0 90.0)
           (-90.0 90.0)
  end
  begin
     id 26 
     name rradius
     direction -1 -4.48942e-011 7.87951e-027   
     length 2.92792   
     axis 180 30 90   XYZ
    dof rx
    limits (-10.0 170.0)
  end
  begin
     id 27 
     name rwrist
     direction -1 -4.48969e-011 1.61068e-026   
     length 1.46396   
     axis -9.31229e-015 -90 -90   XYZ
    dof ry
    limits (-180.0 0.0)
  end
  begin
     id 28
     name rhand
     direction -1 -4.49043e-011 3.22136e-026   
     length 0.784497   
     axis -2.0555e-014 -90 -90   XYZ
    dof rx rz
    limits (-90.0 90.0)
           (-45.0 45.0)
  end
  begin
     id 29
     name rfingers
     direction -1 -4.48823e-011 6.44272e-026   
     length 0.632482   
     axis -4.11101e-014 -90 -90   XYZ
    dof rx
    limits (0.0 90.0)
  end
  begin
     id 30
     name rthumb
     direction -0.707107 -6.34923e-011 0.707107   
     length 0.908121   
     axis -90 -45 -2.85299e-015   XYZ
    dof rx rz
    limits (-45.0 45.0)
           (-45.0 45.0)
  end
:hierarchy
  begin
    root lhipjoint rhipjoint lowerback
    lhipjoint lfemur
    lfemur ltibia
    ltibia lfoot
    lfoot ltoes
    rhipjoint rfemur
    rfemur rtibia
    rtibia rfoot
    rfoot rtoes
    lowerback upperback
    upperback thorax
    thorax lowerneck lclavicle rclavicle
    lowerneck upperneck
    upperneck head
    lclavicle lhumerus
    lhumerus lradius
    lradius lwrist
    lwrist lhand lthumb
    lhand lfingers
    rclavicle rhumerus
    rhumerus rradius
    rradius rwrist
    rwrist rhand rthumb
    rhand rfingers
  end

#!OML:ASF E:\Style6\Style6.ASF
:FULLY-SPECIFIED
:DEGREES
122
root 0.28223 18.0593 0.942102 11.1015 -1.99085 -1.56678
lowerback -0.102115 -0.607155 1.99965
upperback -10.8016 -0.460305 2.71122
thorax -11.4883 -0.25759 1.85419
lowerneck -13.6003 0.716826 2.93623
upperneck 13.7095 1.50867 -6.96881
head 6.4845 0.298121 -2.57751
rclavicle -7.7526e-015 7.95139e-015
rhumerus -23.3034 5.91446 -95.1814
rradius 134.095
rwrist 48.8209
rhand 33.9176 -3.9549
rfingers 7.12502
rthumb 57.1904 -20.3812
lclavicle -7.7526e-015 7.95139e-015
lhumerus -21.8219 -5.12977 94.3348
lradius 122.743
lwrist -24.6951
lhand 15.3865 36.649
lfingers 7.12502
lthumb 40.2153 61.8098
rfemur -19.3936 -1.82593 20.3199
rtibia 22.6385
rfoot -7.8985 -4.07682
rtoes -11.8629
lfemur -17.2413 -6.66787 -15.7034
ltibia 24.5165
lfoot -10.5623 12.6305
ltoes -18.5037
123
root 0.27985 18.0598 0.936527 11.1335 -2.01195 -1.50569
lowerback -0.0476613 -0.617325 1.91014
upperback -10.7564 -0.479056 2.7119
thorax -11.4674 -0.258135 1.90629
lowerneck -13.5288 0.695454 2.8907
upperneck 13.8147 1.49101 -6.94205
head 6.50425 0.289153 -2.56395
rclavicle -5.96354e-016 1.03368e-014
rhumerus -23.3172 5.9458 -95.1156
rradius 134.02
rwrist 48.8269
rhand 33.925 -3.76091
rfingers 7.12502
rthumb 57.1968 -20.1817
lclavicle -5.96354e-016 1.03368e-014
lhumerus -21.8678 -5.07475 94.3975
lradius 122.674
lwrist -24.8052
lhand 15.2416 36.548
lfingers 7.12502
lthumb 40.079 61.7501
rfemur -19.5009 -1.86634 20.2684
rtibia 22.7092
rfoot -7.88708 -4.04309
rtoes -11.8233
lfemur -17.2707 -6.68417 -15.7559
ltibia 24.474
lfoot -10.5275 12.6557
ltoes -18.3936
124
root 0.277958 18.0589 0.931116 11.1451 -2.0433 -1.45681
lowerback 0.0281392 -0.623848 1.82618
upperback -10.703 -0.49194 2.71382
thorax -11.4501 -0.256291 1.95627
lowerneck -13.4154 0.694455 2.8215
upperneck 13.831 1.49687 -6.886
head 6.48935 0.29477 -2.53356
rclavicle -1.2921e-014 -1.59028e-014
rhumerus -23.3076 5.97369 -95.0705
rradius 133.974
rwrist 48.767
rhand 33.9018 -3.78179
rfingers 7.12502
rthumb 57.1765 -20.2198
lclavicle -1.2921e-014 -1.59028e-014
lhumerus -21.9005 -5.04486 94.459
lradius 122.652
lwrist -24.9541
lhand 15.2892 36.7416
lfingers 7.12502
lthumb 40.1238 61.9301
rfemur -19.5963 -1.92854 20.2298
rtibia 22.799
rfoot -7.87812 -3.96321
rtoes -11.82
lfemur -17.299 -6.66498 -15.8038
ltibia 24.4754
lfoot -10.4679 12.6777
ltoes -18.5399
125
root 0.276463 18.0576 0.92541 11.1666 -2.08647 -1.43195
lowerback 0.106142 -0.645558 1.78822
upperback -10.6756 -0.521746 2.71788
thorax -11.4648 -0.26699 1.98557
lowerneck -13.1709 0.713413 2.75934
upperneck 13.7966 1.52884 -6.84007
head 6.43711 0.315573 -2.50418
rclavicle -5.86415e-015 1.59028e-014
rhumerus -23.3384 6.03762 -95.0953
rradius 133.933
rwrist 48.743
rhand 33.8654 -3.80423
rfingers 7.12502
rthumb 57.1445 -20.2692
lclavicle -5.86415e-015 1.59028e-014
lhumerus -21.9592 -4.95658 94.4371
lradius 122.662
lwrist -25.0289
lhand 15.3897 36.7641
lfingers 7.12502
lthumb 40.2183 61.9239
rfemur -19.6934 -1.99955 20.2158
rtibia 22.8761
rfoot -7.88061 -3.85689
rtoes -11.9042
lfemur -17.367 -6.62779 -15.8246
ltibia 24.5188
lfoot -10.4345 12.6654
ltoes -18.6387
126
root 0.27332 18.0562 0.919428 11.2011 -2.12202 -1.44895
lowerback 0.205473 -0.663342 1.77325
upperback -10.6724 -0.543528 2.71937
thorax -11.5212 -0.27593 1.99986
lowerneck -12.9241 0.726819 2.75488
upperneck 13.8012 1.54505 -6.80301
head 6.39636 0.33054 -2.48925
rclavicle -3.97569e-016 1.19271e-014
rhumerus -23.4308 6.07651 -95.1399
rradius 133.879
rwrist 48.8428
rhand 33.7882 -3.79257
rfingers 7.12502
rthumb 57.0766 -20.3146
lclavicle -3.97569e-016 1.19271e-014
lhumerus -22.0445 -4.92074 94.4013
lradius 122.594
lwrist -25.1727
lhand 15.1912 36.611
lfingers 7.12502
lthumb 40.0316 61.8275
rfemur -19.8071 -2.04474 20.2536
rtibia 22.9526
rfoot -7.84058 -3.80448
rtoes -12.1787
lfemur -17.4634 -6.58475 -15.7893
ltibia 24.5854
lfoot -10.4738 12.6345
ltoes -18.384
127
root 0.270579 18.0548 0.913462 11.2422 -2.12096 -1.49961
lowerback 0.299839 -0.671985 1.7959
upperback -10.6557 -0.55065 2.72264
thorax -11.5597 -0.281199 1.99305
lowerneck -12.7577 0.723029 2.77833
upperneck 13.8356 1.53217 -6.76097
head 6.37755 0.331448 -2.48066
rclavicle -1.04362e-014 3.26007e-014
rhumerus -23.499 6.05824 -95.1496
rradius 133.874
rwrist 48.9271
rhand 33.8853 -3.74924
rfingers 7.12502
rthumb 57.162 -20.1995
lclavicle -1.04362e-014 3.26007e-014
lhumerus -22.0625 -4.92875 94.3922
lradius 122.536
lwrist -25.2272
lhand 15.0263 36.6405
lfingers 7.12502
lthumb 39.8764 61.9038
rfemur -19.924 -2.11892 20.339
rtibia 23.0335
rfoot -7.80622 -3.74346
rtoes -12.1788
lfemur -17.5642 -6.53917 -15.7092
ltibia 24.6555
lfoot -10.5171 12.5535
ltoes -18.0884
128
root 0.268896 18.0532 0.906336 11.2627 -2.09458 -1.53361
lowerback 0.384314 -0.680783 1.80958
upperback -10.6062 -0.559069 2.73288
thorax -11.5539 -0.285925 1.99756
lowerneck -12.7048 0.696894 2.78503
upperneck 13.9492 1.50502 -6.78128
head 6.40328 0.316271 -2.49194
rclavicle -2.10712e-014 2.22639e-014
rhumerus -23.4967 6.03604 -95.1303
rradius 133.87
rwrist 48.9737
rhand 33.9429 -3.73884
rfingers 7.12502
rthumb 57.2125 -20.1464
lclavicle -2.10712e-014 2.22639e-014
lhumerus -22.0336 -4.90294 94.4295
lradius 122.54
lwrist -25.2319
lhand 15.0151 36.6155
lfingers 7.12502
lthumb 39.8659 61.8819
rfemur -20.024 -2.26099 20.4077
rtibia 23.1248
rfoot -7.82436 -3.60381
rtoes -11.9778
lfemur -17.6507 -6.45718 -15.6582
ltibia 24.7322
lfoot -10.5606 12.4422
ltoes -18.1323
129
root 0.268841 18.0516 0.900456 11.2748 -2.09165 -1.44875
lowerback 0.429054 -0.695815 1.72213
upperback -10.5349 -0.588363 2.70588
thorax -11.4965 -0.293696 2.01869
lowerneck -12.6367 0.687772 2.8103
upperneck 13.9802 1.4955 -6.81499
head 6.40125 0.310981 -2.50803
rclavicle 2.10712e-014 -3.02153e-014
rhumerus -23.4383 6.0389 -95.11
rradius 133.887
rwrist 48.9753
rhand 34.0882 -3.84672
rfingers 7.12502
rthumb 57.34 -20.1459
lclavicle 2.10712e-014 -3.02153e-014
lhumerus -22.0001 -4.88409 94.4562
lradius 122.594
lwrist -25.2427
lhand 15.0633 36.5994
lfingers 7.12502
lthumb 39.9112 61.8522
rfemur -20.1208 -2.45539 20.3371
rtibia 23.231
rfoot -7.79995 -3.41699
rtoes -11.5694
lfemur -17.7293 -6.37381 -15.7546
ltibia 24.8053
lfoot -10.5452 12.3785
ltoes -18.3513
130
root 0.267649 18.0491 0.893545 11.2943 -2.07866 -1.42961
lowerback 0.524579 -0.711718 1.68576
upperback -10.4947 -0.610994 2.6979
thorax -11.5072 -0.301646 2.03352
lowerneck -12.5132 0.70156 2.82499
upperneck 13.9992 1.51066 -6.79456
head 6.38656 0.322696 -2.50232
rclavicle 2.28602e-015 -6.36111e-015
rhumerus -23.4316 6.00941 -95.0899
rradius 133.911
rwrist 48.9313
rhand 34.1035 -3.95468
rfingers 7.12502
rthumb 57.3535 -20.2423
lclavicle 2.28602e-015 -6.36111e-015
lhumerus -22.0133 -4.89986 94.4439
lradius 122.637
lwrist -25.2048
lhand 15.1085 36.6122
lfingers 7.12502
lthumb 39.9537 61.8522
rfemur -20.2331 -2.63102 20.3444
rtibia 23.351
rfoot -7.79599 -3.27067
rtoes -11.4989
lfemur -17.821 -6.2804 -15.7652
ltibia 24.8577
lfoot -10.5122 12.2737
ltoes -18.5484
131
root 0.265949 18.0467 0.885657 11.3179 -2.03241 -1.40966
lowerback 0.637369 -0.730586 1.6376
upperback -10.472 -0.637534 2.68777
thorax -11.5485 -0.31029 2.05408
lowerneck -12.2722 0.705576 2.88112
upperneck 13.9208 1.51008 -6.83067
head 6.32046 0.32786 -2.52174
rclavicle -2.51463e-014 6.67916e-014
rhumerus -23.4496 5.90182 -95.0633
rradius 133.916
rwrist 48.8971
rhand 34.0152 -3.91793
rfingers 7.12502
rthumb 57.2761 -20.2716
lclavicle -2.51463e-014 6.67916e-014
lhumerus -22.0042 -4.93169 94.4201
lradius 122.615
lwrist -25.1678
lhand 15.103 36.6126
lfingers 7.12502
lthumb 39.9486 61.8541
rfemur -20.3558 -2.84233 20.3613
rtibia 23.4765
rfoot -7.81793 -3.10597
rtoes -11.6743
lfemur -17.9286 -6.18996 -15.7709
ltibia 24.8959
lfoot -10.3345 12.2031
ltoes -19.6343
132
root 0.264631 18.0461 0.878621 11.3066 -1.9814 -1.35611
lowerback 0.732915 -0.748641 1.57946
upperback -10.4128 -0.66691 2.66079
thorax -11.5368 -0.320638 2.06066
lowerneck -12.0443 0.729748 2.94248
upperneck 13.7789 1.53694 -6.89259
head 6.23834 0.34523 -2.54723
rclavicle -2.88238e-015 1.82882e-014
rhumerus -23.4136 5.76549 -95.0617
rradius 133.905
rwrist 48.9586
rhand 33.9447 -3.76972
rfingers 7.12502
rthumb 57.2142 -20.1759
lclavicle -2.88238e-015 1.82882e-014
lhumerus -21.9216 -4.97049 94.3854
lradius 122.555
lwrist -25.1289
lhand 15.1521 36.6621
lfingers 7.12502
lthumb 39.9948 61.8897
rfemur -20.4307 -3.05487 20.3405
rtibia 23.5922
rfoot -7.85366 -2.96463
rtoes -11.4825
lfemur -17.9873 -6.16392 -15.82
ltibia 24.9379
lfoot -10.1937 12.1524
ltoes -20.4923
133
root 0.262176 18.0445 0.86937 11.329 -1.92786 -1.33831
lowerback 0.838019 -0.766471 1.52617
upperback -10.3703 -0.691654 2.66918
thorax -11.5504 -0.326922 2.1032
lowerneck -11.9943 0.76856 2.96735
upperneck 13.823 1.59865 -6.95666
head 6.24763 0.3716 -2.56682
rclavicle -7.55382e-015 2.38542e-015
rhumerus -23.3607 5.70305 -95.0433
rradius 133.896
rwrist 48.9795
rhand 33.8181 -3.73985
rfingers 7.12502
rthumb 57.1029 -20.2398
lclavicle -7.55382e-015 2.38542e-015
lhumerus -21.8554 -4.9511 94.3781
lradius 122.527
lwrist -25.0899
lhand 15.2346 36.7952
lfingers 7.12502
lthumb 40.0724 61.9993
rfemur -20.5721 -3.2356 20.3614
rtibia 23.7268
rfoot -7.86401 -2.85719
rtoes -11.8605
lfemur -18.0668 -6.16633 -15.8139
ltibia 24.9582
lfoot -10.1997 12.0845
ltoes -20.4601
134
root 0.259636 18.0422 0.860317 11.3318 -1.87 -1.32858
lowerback 0.979368 -0.775139 1.46692
upperback -10.3299 -0.702476 2.68509
thorax -11.5888 -0.325187 2.15674
lowerneck -11.9771 0.773126 2.89877
upperneck 13.9127 1.61408 -6.90214
head 6.27302 0.378832 -2.53747
rclavicle 1.8487e-014 -1.59028e-015
rhumerus -23.3264 5.66458 -94.9678
rradius 133.946
rwrist 48.947
rhand 33.8227 -3.75618
rfingers 7.12502
rthumb 57.107 -20.2527
lclavicle 1.8487e-014 -1.59028e-015
lhumerus -21.8016 -4.97467 94.3798
lradius 122.447
lwrist -25.0887
lhand 15.2947 36.8562
lfingers 7.12502
lthumb 40.129 62.0432
rfemur -20.6935 -3.44363 20.3964
rtibia 23.8813
rfoot -7.88589 -2.744
rtoes -12.4842
lfemur -18.1179 -6.20868 -15.7873
ltibia 24.9649
lfoot -10.2977 11.9927
ltoes -19.702
135
root 0.258147 18.04 0.852687 11.3212 -1.78598 -1.24033
lowerback 1.1189 -0.790209 1.34869
upperback -10.3054 -0.729837 2.66127
thorax -11.6434 -0.328117 2.2026
lowerneck -11.821 0.772074 2.90531
upperneck 13.8784 1.60844 -6.88222
head 6.23468 0.381379 -2.5319
rclavicle -1.8487e-014 3.81667e-014
rhumerus -23.3606 5.5692 -94.9072
rradius 133.989
rwrist 48.896
rhand 33.8662 -3.81762
rfingers 7.12502
rthumb 57.1452 -20.282
lclavicle -1.8487e-014 3.81667e-014
lhumerus -21.757 -5.03633 94.3747
lradius 122.372
lwrist -25.1004
lhand 15.2706 36.8728
lfingers 7.12502
lthumb 40.1063 62.0666
rfemur -20.7901 -3.6856 20.3457
rtibia 24.0442
rfoot -7.93449 -2.61325
rtoes -12.1457
lfemur -18.1628 -6.3079 -15.8506
ltibia 24.9802
lfoot -10.2404 12.0046
ltoes -19.9865
136
root 0.255352 18.0378 0.842147 11.3457 -1.68685 -1.14896
lowerback 1.27531 -0.806165 1.20472
upperback -10.2945 -0.759366 2.64286
thorax -11.7236 -0.329012 2.27
lowerneck -11.7119 0.787007 2.92878
upperneck 13.8668 1.62457 -6.87693
head 6.21303 0.393039 -2.5323
rclavicle 9.64106e-015 -7.95139e-016
rhumerus -23.3869 5.45489 -94.8524
rradius 134.028
rwrist 48.9215
rhand 33.8888 -3.89625
rfingers 7.12502
rthumb 57.1651 -20.3439
lclavicle 9.64106e-015 -7.95139e-016
lhumerus -21.6888 -5.1021 94.3432
lradius 122.27
lwrist -25.1207
lhand 15.2355 36.8298
lfingers 7.12502
lthumb 40.0733 62.0337
rfemur -20.9308 -3.86362 20.2911
rtibia 24.1898
rfoot -7.94924 -2.55203
rtoes -11.8909
lfemur -18.267 -6.44315 -15.8984
ltibia 25.0044
lfoot -10.1795 11.9723
ltoes -19.9564
